# 3ds Max Wavefront OBJ Exporter v0.99 - (c)2007 guruware
# File Created: 13.11.2022 13:08:17

mtllib pistaIntObj.mtl

#
# object pista_int
#

v  -20.7459 1.1876 13.1350
v  -19.7096 1.1748 12.9774
v  -21.0019 1.1424 12.9774
v  -19.5411 1.3089 13.5525
v  -16.9190 1.5600 12.9774
v  -16.1879 1.7035 13.2784
v  -14.1284 1.7133 12.9774
v  -21.7726 0.8606 11.0766
v  -19.7096 0.8078 10.8443
v  -21.7063 0.8288 10.8443
v  -16.9190 1.0598 10.8443
v  -14.1284 1.1648 10.8443
v  4.0490 -0.9310 11.8210
v  5.4058 -0.8617 10.8443
v  3.2892 -0.9336 10.8443
v  5.4058 -0.9451 12.9774
v  8.1964 -0.6568 10.8443
v  -21.0901 0.6691 8.8027
v  -19.7096 0.5911 8.7111
v  -21.0687 0.6685 8.7111
v  -16.9190 0.6646 8.7111
v  -14.1284 0.7087 8.7111
v  5.4058 -0.7263 8.7111
v  8.1964 -0.6116 8.7111
v  -20.6868 0.6792 7.0808
v  -19.7096 0.5847 6.5780
v  -20.5892 0.6816 6.5780
v  -16.9190 0.4841 6.5780
v  -14.1284 0.3905 6.5780
v  0.8589 -0.6890 7.3955
v  2.6152 -0.6074 6.5780
v  0.3461 -0.6290 6.5780
v  2.6152 -0.8260 8.7111
v  5.4058 -0.3750 6.5780
v  8.1964 -0.3683 6.5780
v  9.9822 -0.4210 7.3461
v  10.2925 -0.2951 6.5780
v  -19.7096 0.6061 4.4449
v  -16.9190 0.4337 4.4449
v  -14.1284 0.2374 4.4449
v  -0.9814 -0.5167 4.4617
v  -0.1754 -0.5148 4.4449
v  -0.9915 -0.5161 4.4449
v  2.6152 -0.3648 4.4449
v  5.4058 -0.0450 4.4449
v  8.1964 -0.0164 4.4449
v  10.9870 0.1484 4.4449
v  -19.7096 0.6665 2.3118
v  -16.9190 0.4524 2.3118
v  -14.1284 0.1732 2.3118
v  -0.1754 -0.3962 2.3118
v  2.6152 -0.0873 2.3118
v  5.4058 0.2902 2.3118
v  8.1964 0.4563 2.3118
v  10.9870 0.6053 2.3118
v  -19.4941 0.7657 0.1786
v  -19.7096 0.7010 1.5585
v  -16.9190 0.5773 0.1786
v  -14.1284 0.2186 0.1786
v  -11.3378 -0.1878 0.1786
v  -2.9660 -0.5422 0.1786
v  -2.9197 -0.5091 1.2396
v  -0.1754 -0.2615 0.1786
v  2.6152 0.1957 0.1786
v  5.4058 0.6392 0.1786
v  8.1964 0.8986 0.1786
v  10.9870 1.0316 0.1786
v  -19.4576 0.7801 -0.0555
v  -16.9190 0.7864 -1.9545
v  -19.1779 0.9422 -1.9545
v  -14.1284 0.3786 -1.9545
v  -11.3378 -0.0941 -1.9545
v  -2.9660 -0.5602 -1.9545
v  -0.1754 -0.2476 -1.9545
v  2.6152 0.3137 -1.9545
v  5.4058 0.8637 -1.9545
v  8.1964 1.2093 -1.9545
v  10.9870 1.3273 -1.9545
v  -19.0435 1.0398 -2.8669
v  -16.9190 1.0412 -4.0876
v  -18.8697 1.1704 -4.0876
v  -14.1284 0.6223 -4.0876
v  -11.3378 0.1359 -4.0876
v  -8.5472 -0.2750 -4.0876
v  -7.9954 -0.4572 -2.5544
v  -5.7566 -0.5201 -4.0876
v  -5.5214 -0.5863 -2.7913
v  -2.9660 -0.4946 -4.0876
v  -0.1754 -0.1871 -4.0876
v  2.6152 0.3579 -4.0876
v  5.4058 0.9243 -4.0876
v  8.1964 1.2984 -4.0876
v  10.9870 1.4030 -4.0876
v  -18.5527 1.3669 -6.1796
v  -16.9190 1.2835 -6.2208
v  -18.5404 1.3701 -6.2208
v  -14.1284 0.9150 -6.2208
v  -11.3378 0.4405 -6.2208
v  -8.5472 -0.0194 -6.2208
v  -5.7566 -0.3303 -6.2208
v  -2.9660 -0.3453 -6.2208
v  -0.1754 -0.0394 -6.2208
v  2.6152 0.4694 -6.2208
v  5.4058 0.9908 -6.2208
v  8.1964 1.3080 -6.2208
v  10.7768 1.4030 -5.6139
v  -16.6893 1.4222 -8.3539
v  -16.9190 1.4321 -8.2260
v  -14.1284 1.1740 -8.3539
v  -11.3378 0.7339 -8.3539
v  -8.5472 0.2612 -8.3539
v  -5.7566 -0.0744 -8.3539
v  -3.1879 -0.1567 -8.1843
v  -0.7596 0.0131 -7.9074
v  -2.9660 -0.1510 -8.1590
v  1.6687 0.3656 -7.6304
v  -0.1754 0.0865 -7.8407
v  4.0970 0.7869 -7.3534
v  2.6152 0.5276 -7.5224
v  6.5253 1.1469 -7.0765
v  5.4058 0.9975 -7.2042
v  -10.4728 0.6576 -9.0152
v  -11.3378 0.8185 -9.1138
v  -8.0445 0.2322 -8.7382
v  -8.5472 0.3152 -8.7955
v  -13.0670 0.0879 3.5395
v  -12.2003 -0.0598 2.3118
v  -14.1227 1.2557 -9.3724
v  -13.7934 1.2149 -9.3790
v  -13.5245 0.7082 8.7772
v  -13.5582 0.6960 8.7111
v  8.6816 1.3249 -6.8305
v  8.8641 1.3368 -6.7312
v  11.6874 0.5309 2.8906
v  11.8812 0.6665 2.3118
v  12.2362 0.9016 1.2509
v  12.5566 1.1070 0.1786
v  -14.0394 0.4318 6.9970
v  -14.0492 0.3866 6.5780
v  -8.7534 -0.4279 -1.9169
v  -8.7087 -0.4303 -1.9545
v  12.9590 1.3583 -1.8375
v  12.9458 1.3658 -1.9545
v  -15.0858 1.3473 -9.1799
v  -15.7166 1.3821 -8.8957
v  -14.7707 1.3220 -9.2724
v  8.3490 -0.6632 11.2719
v  8.5290 -0.6421 10.8443
v  -13.9820 0.2553 4.8576
v  -13.6955 0.2022 4.4449
v  12.3699 1.4030 -4.0615
v  12.3480 1.4030 -4.0876
v  9.0599 -0.6115 9.5823
v  9.4216 -0.5825 8.7111
v  11.6675 1.4030 -4.9007
v  11.8170 1.4030 -4.7221
v  -17.5871 1.4491 -7.8166
v  -17.6879 1.4482 -7.7209
v  -17.2729 1.4446 -8.0288
v  -19.8273 0.6776 2.3118
v  -19.8432 0.6750 2.4139
v  -20.1875 0.6592 4.4449
v  -20.2593 0.6666 4.8650
v  -11.3417 1.5301 12.2815
v  -11.3461 1.3235 11.4833
v  -11.5959 1.5873 12.5040
v  -11.2667 -0.2008 1.0328
v  -11.3378 -0.1909 1.1300
v  -4.8054 -0.6164 -1.9545
v  -4.2334 -0.6012 -0.9857
v  -3.5461 -0.5753 0.1786
v  -3.3657 -0.5587 0.4841
v  -2.2747 -0.4792 2.3118
v  -1.6135 -0.4882 3.4110
v  0.1771 -0.6110 6.3086
v  1.7495 -0.8032 8.7111
v  2.0447 -0.8318 9.1472
v  3.0379 -0.9202 10.5212
v  -20.1651 1.2564 13.3629
v  -19.7096 1.2944 13.5013
v  -20.1973 1.2528 13.3502
v  -17.4545 1.5941 13.3867
v  -16.9190 1.6473 13.3409
v  -17.8314 1.5512 13.4190
v  -14.2439 1.7363 13.0657
v  -14.1284 1.7325 13.0502
v  -14.6764 1.7455 13.1236
v  -21.2403 1.1142 12.8307
v  -21.6050 1.0510 12.4116
v  -21.6367 1.0356 12.3173
v  -21.7969 0.9663 11.8397
v  4.0841 -0.9334 11.8546
v  5.2521 -0.9581 12.9774
v  7.4159 -0.8017 12.9774
v  7.4625 -0.7976 12.9563
v  8.0598 -0.7290 12.3590
v  8.1964 -0.7046 12.0370
v  7.8218 -0.7602 12.6768
v  -21.4891 0.7423 10.0841
v  -21.4839 0.7407 10.0674
v  -20.7565 0.6777 7.3782
v  1.0931 -0.7173 7.7415
v  9.7600 -0.4985 7.8961
v  -0.7273 -0.5328 4.8668
v  -0.1754 -0.5768 5.7466
v  10.4385 -0.2272 6.2165
v  10.9870 0.0765 4.7990
v  -12.1594 -0.0664 2.2537
v  -2.9660 -0.5135 1.1612
v  -2.4925 -0.4830 1.9498
v  -19.4649 0.7771 -0.0085
v  -19.1104 0.9909 -2.4125
v  -8.5472 -0.4384 -2.0903
v  -5.8733 -0.5648 -3.0331
v  -5.7566 -0.5725 -2.9529
v  -6.2787 -0.5391 -3.1665
v  -6.7556 -0.5107 -3.1553
v  -7.1523 -0.4906 -3.0208
v  -7.3219 -0.4819 -2.9633
v  -4.9071 -0.6138 -2.1268
v  -5.1531 -0.6052 -2.4158
v  -5.2053 -0.6029 -2.4771
v  -18.7672 1.2440 -4.8081
v  -18.6285 1.3345 -5.7824
v  10.9870 1.4030 -5.4455
v  10.4543 1.4008 -5.8136
v  9.7968 1.3835 -6.2208
v  -4.6750 -0.1333 -8.3539
v  8.1964 1.2931 -6.8859
v  -5.7566 -0.0591 -8.4773
v  -13.2061 0.1128 3.7398
v  -14.1284 1.2564 -9.3718
v  -12.9011 1.0836 -9.2921
v  -13.4633 1.1692 -9.3562
v  -11.6908 1.1625 10.8443
v  -11.8639 1.0967 10.5815
v  -12.2400 0.9808 10.1131
v  -12.6288 0.8800 9.6979
v  -12.6676 0.8700 9.6564
v  -13.1268 0.7897 9.2288
v  9.7606 1.3821 -6.2432
v  11.1217 0.1591 4.4449
v  11.1736 0.1926 4.3023
v  12.1886 0.8715 1.3933
v  -13.7179 0.6402 8.3974
v  -13.7950 0.6146 8.2459
v  -13.9596 0.5191 7.6480
v  -14.0310 0.4399 7.0654
v  -10.6053 -0.2801 0.1786
v  -10.3965 -0.3008 -0.0909
v  -9.5563 -0.3763 -1.0849
v  -9.1949 -0.4028 -1.4595
v  12.7202 1.1958 -0.3688
v  12.8646 1.3065 -1.2566
v  -15.3923 1.3670 -9.0594
v  -15.6883 1.3810 -8.9114
v  -16.1145 1.3980 -8.6741
v  -14.4491 1.2915 -9.3368
v  -15.9302 1.3905 -8.7767
v  8.2068 -0.7029 12.0126
v  8.2931 -0.6811 11.6470
v  -14.0506 0.3810 6.5185
v  -14.0556 0.3631 6.3060
v  -14.0294 0.3117 5.5885
v  12.8214 1.4029 -3.0544
v  12.7204 1.4030 -3.2795
v  8.6866 -0.6278 10.4696
v  -18.4385 1.3948 -6.5621
v  -18.2854 1.4176 -6.9236
v  -18.0928 1.4346 -7.2575
v  -17.2583 1.4442 -8.0370
v  -17.8602 1.4454 -7.5574
v  -19.8699 0.6709 2.5844
v  -20.2799 0.6684 4.9856
v  -11.3378 1.5292 12.2782
v  -11.3378 1.3317 11.5157
v  -11.3396 1.3300 11.5087
v  -11.5726 1.2077 11.0238
v  -11.5593 1.2128 11.0440
v  -13.5850 1.7072 12.9774
v  -13.3633 1.6935 12.9477
v  -11.5495 1.2178 11.0641
v  -11.5016 1.2426 11.1628
v  -12.3144 1.6328 12.7435
v  -11.4151 1.2875 11.3412
v  2.5520 -0.8799 9.8966
v  2.6152 -0.8854 9.9778
# 287 vertices

vn -0.0242 0.9710 -0.2380
vn -0.0637 0.9788 -0.1949
vn -0.0247 0.9858 -0.1659
vn -0.0940 0.9739 -0.2064
vn -0.0967 0.9659 -0.2402
vn -0.0588 0.9481 -0.3125
vn -0.0206 0.9656 -0.2591
vn 0.0101 0.9908 -0.1353
vn -0.0343 0.9894 -0.1410
vn 0.0104 0.9923 -0.1235
vn -0.0662 0.9772 -0.2016
vn -0.0165 0.9730 -0.2303
vn -0.0178 0.9988 0.0461
vn -0.0472 0.9978 0.0455
vn -0.0339 0.9979 0.0550
vn -0.0616 0.9966 0.0553
vn -0.0590 0.9979 0.0271
vn 0.0550 0.9983 -0.0215
vn 0.0200 0.9985 -0.0503
vn 0.0569 0.9983 0.0122
vn -0.0229 0.9910 -0.1315
vn 0.0068 0.9833 -0.1818
vn -0.0317 0.9937 0.1074
vn -0.0355 0.9968 0.0711
vn 0.1114 0.9933 0.0297
vn 0.0737 0.9973 0.0038
vn 0.1096 0.9938 0.0204
vn 0.0310 0.9982 -0.0505
vn 0.0433 0.9942 -0.0985
vn -0.0081 0.9966 0.0822
vn -0.0491 0.9929 0.1086
vn -0.0095 0.9972 0.0746
vn -0.0148 0.9968 0.0780
vn -0.0366 0.9876 0.1524
vn -0.0243 0.9886 0.1485
vn -0.0233 0.9906 0.1350
vn -0.0345 0.9861 0.1624
vn 0.0888 0.9959 0.0154
vn 0.0665 0.9978 -0.0079
vn 0.0747 0.9959 -0.0503
vn -0.0016 0.9993 0.0381
vn -0.0380 0.9977 0.0557
vn -0.0017 0.9995 0.0309
vn -0.0798 0.9898 0.1178
vn -0.0640 0.9857 0.1562
vn -0.0321 0.9817 0.1877
vn -0.0577 0.9782 0.1993
vn 0.0778 0.9962 0.0397
vn 0.0900 0.9954 0.0317
vn 0.1085 0.9941 -0.0044
vn -0.0813 0.9947 0.0624
vn -0.1163 0.9853 0.1249
vn -0.0974 0.9824 0.1593
vn -0.0475 0.9781 0.2024
vn -0.0606 0.9774 0.2027
vn 0.0715 0.9955 0.0618
vn -0.0071 0.9989 0.0458
vn 0.1026 0.9919 0.0745
vn 0.1350 0.9897 0.0483
vn 0.1346 0.9906 0.0236
vn -0.0784 0.9968 -0.0134
vn -0.0847 0.9964 -0.0088
vn -0.1279 0.9913 0.0321
vn -0.1566 0.9835 0.0904
vn -0.1248 0.9832 0.1330
vn -0.0637 0.9837 0.1682
vn -0.0491 0.9855 0.1625
vn 0.0550 0.9955 0.0769
vn 0.1070 0.9885 0.1066
vn 0.0684 0.9922 0.1043
vn 0.1533 0.9836 0.0947
vn 0.1460 0.9864 0.0754
vn -0.0718 0.9973 0.0120
vn -0.1519 0.9883 0.0149
vn -0.1908 0.9811 0.0332
vn -0.1540 0.9861 0.0622
vn -0.0772 0.9931 0.0880
vn -0.0318 0.9959 0.0850
vn 0.0660 0.9910 0.1161
vn 0.1042 0.9876 0.1171
vn 0.0657 0.9914 0.1132
vn 0.1577 0.9796 0.1243
vn 0.1593 0.9798 0.1210
vn 0.1173 0.9880 0.1002
vn 0.0961 0.9918 0.0838
vn 0.0372 0.9967 0.0719
vn 0.0007 0.9986 0.0534
vn -0.0620 0.9967 0.0528
vn -0.1489 0.9877 0.0467
vn -0.1938 0.9804 0.0345
vn -0.1622 0.9864 0.0259
vn -0.0841 0.9962 0.0222
vn -0.0188 0.9996 0.0195
vn 0.0531 0.9944 0.0915
vn 0.0897 0.9912 0.0976
vn 0.0531 0.9945 0.0901
vn 0.1489 0.9808 0.1260
vn 0.1648 0.9769 0.1358
vn 0.1344 0.9830 0.1247
vn 0.0568 0.9929 0.1044
vn -0.0508 0.9952 0.0836
vn -0.1407 0.9876 0.0697
vn -0.1813 0.9823 0.0481
vn -0.1522 0.9881 0.0232
vn -0.0839 0.9965 -0.0033
vn -0.0232 0.9997 0.0120
vn 0.0925 0.9926 0.0782
vn 0.0793 0.9939 0.0766
vn 0.1284 0.9867 0.1000
vn 0.1623 0.9794 0.1198
vn 0.1458 0.9819 0.1211
vn 0.0859 0.9896 0.1153
vn -0.0171 0.9981 0.0584
vn -0.1185 0.9914 0.0556
vn -0.0451 0.9951 0.0878
vn -0.1705 0.9836 0.0595
vn -0.1358 0.9883 0.0696
vn -0.1681 0.9842 0.0560
vn -0.1774 0.9831 0.0457
vn -0.1032 0.9936 0.0462
vn -0.1576 0.9874 0.0143
vn 0.1647 0.9810 0.1023
vn 0.1616 0.9808 0.1090
vn 0.1248 0.9882 0.0886
vn 0.1577 0.9804 0.1182
vn 0.1143 0.9928 -0.0348
vn 0.1199 0.9923 -0.0308
vn 0.1228 0.9892 0.0800
vn 0.1283 0.9884 0.0813
vn 0.0221 0.9805 -0.1951
vn 0.0218 0.9816 -0.1899
vn -0.0584 0.9981 -0.0188
vn -0.0505 0.9987 -0.0097
vn -0.0683 0.9758 0.2079
vn -0.0669 0.9775 0.2000
vn -0.0613 0.9808 0.1853
vn -0.0473 0.9864 0.1576
vn 0.1991 0.9702 -0.1381
vn 0.0490 0.9937 -0.1012
vn 0.1300 0.9883 0.0800
vn 0.1241 0.9888 0.0825
vn -0.0356 0.9954 0.0892
vn -0.0196 0.9984 0.0522
vn 0.1242 0.9800 0.1555
vn 0.1221 0.9811 0.1502
vn 0.1241 0.9801 0.1550
vn -0.0598 0.9975 0.0364
vn -0.0441 0.9987 0.0237
vn 0.0803 0.9942 -0.0716
vn 0.0807 0.9942 -0.0706
vn -0.0116 0.9998 0.0176
vn 0.0000 1.0000 -0.0000
vn -0.0252 0.9995 0.0200
vn -0.0237 0.9975 0.0668
vn 0.0713 0.9939 0.0845
vn 0.0956 0.9885 0.1173
vn 0.0842 0.9912 0.1023
vn 0.0944 0.9947 0.0403
vn 0.0934 0.9949 0.0390
vn 0.1105 0.9938 0.0120
vn 0.1117 0.9937 0.0031
vn -0.0002 0.9681 -0.2506
vn 0.0068 0.9685 -0.2490
vn -0.0173 0.9675 -0.2523
vn 0.1377 0.9905 0.0036
vn 0.1517 0.9884 0.0033
vn -0.0306 0.9993 0.0230
vn -0.0367 0.9993 -0.0016
vn -0.0570 0.9984 0.0010
vn -0.0606 0.9978 -0.0251
vn -0.0395 0.9990 0.0193
vn -0.0273 0.9988 0.0410
vn -0.0233 0.9959 0.0876
vn 0.0263 0.9976 0.0635
vn 0.0259 0.9986 0.0472
vn -0.0270 0.9970 0.0727
vn -0.0173 0.9738 -0.2267
vn -0.0154 0.9748 -0.2224
vn -0.0222 0.9724 -0.2325
vn -0.1280 0.9604 -0.2476
vn -0.1054 0.9669 -0.2323
vn -0.1538 0.9418 -0.2991
vn -0.0135 0.9633 -0.2682
vn -0.0024 0.9670 -0.2546
vn -0.0697 0.8870 -0.4566
vn -0.0268 0.9912 -0.1298
vn -0.0129 0.9876 -0.1563
vn -0.0010 0.9881 -0.1540
vn 0.0074 0.9898 -0.1421
vn -0.0117 0.9982 0.0585
vn -0.0834 0.9906 0.1085
vn -0.0712 0.9969 0.0334
vn -0.0711 0.9966 0.0406
vn -0.0769 0.9962 0.0406
vn -0.0826 0.9958 0.0400
vn -0.0721 0.9965 0.0415
vn 0.0097 0.9946 -0.1035
vn 0.0213 0.9964 -0.0820
vn 0.0836 0.9964 0.0112
vn 0.0027 0.9959 0.0901
vn -0.0042 0.9915 0.1297
vn 0.0012 0.9990 0.0444
vn -0.0356 0.9973 0.0642
vn -0.0312 0.9814 0.1895
vn -0.0289 0.9796 0.1987
vn 0.1230 0.9923 -0.0148
vn -0.0489 0.9984 -0.0291
vn -0.0624 0.9977 0.0264
vn 0.0669 0.9947 0.0776
vn 0.0677 0.9909 0.1165
vn 0.1133 0.9903 0.0810
vn 0.0395 0.9981 0.0466
vn 0.0293 0.9985 0.0461
vn 0.0555 0.9971 0.0520
vn 0.0710 0.9953 0.0660
vn 0.0751 0.9947 0.0707
vn 0.0994 0.9895 0.1048
vn -0.0244 0.9990 0.0373
vn -0.0149 0.9988 0.0466
vn -0.0092 0.9985 0.0543
vn 0.0628 0.9921 0.1087
vn 0.0545 0.9938 0.0970
vn -0.0315 0.9993 0.0223
vn -0.0471 0.9984 0.0299
vn 0.0515 0.9454 -0.3218
vn -0.0876 0.9961 -0.0133
vn 0.1184 0.9859 0.1183
vn 0.0845 0.9943 -0.0652
vn 0.1194 0.9896 0.0800
vn 0.1508 0.9832 0.1026
vn 0.1370 0.9868 0.0861
vn 0.0009 0.9697 -0.2442
vn 0.0010 0.9701 -0.2427
vn 0.0017 0.9708 -0.2399
vn 0.0031 0.9714 -0.2374
vn 0.0154 0.9744 -0.2242
vn 0.0341 0.9752 -0.2185
vn -0.0472 0.9988 0.0097
vn -0.0778 0.9764 0.2014
vn -0.0739 0.9757 0.2062
vn -0.0764 0.9799 0.1841
vn 0.0245 0.9829 -0.1824
vn 0.0372 0.9843 -0.1724
vn 0.1638 0.9752 -0.1487
vn 0.3971 0.9017 -0.1708
vn 0.1250 0.9920 0.0160
vn 0.1278 0.9913 0.0308
vn 0.1691 0.9813 0.0921
vn 0.2127 0.9653 0.1515
vn -0.0545 0.9907 0.1245
vn -0.0815 0.9932 0.0836
vn 0.1239 0.9801 0.1548
vn 0.0973 0.9905 0.0975
vn 0.1080 0.9903 0.0878
vn 0.1206 0.9820 0.1452
vn -0.0756 0.9963 0.0400
vn -0.0804 0.9960 0.0398
vn 0.0537 0.9947 -0.0878
vn 0.1011 0.9922 -0.0724
vn 0.0560 0.9960 -0.0695
vn -0.0271 0.9994 0.0235
vn -0.0324 0.9994 0.0148
vn -0.0626 0.9980 -0.0048
vn 0.0534 0.9948 0.0867
vn 0.0544 0.9950 0.0840
vn 0.0611 0.9949 0.0801
vn 0.1022 0.9873 0.1216
vn 0.0800 0.9920 0.0980
vn 0.0805 0.9963 0.0292
vn 0.1154 0.9933 0.0092
vn 0.0029 0.9681 -0.2507
vn 0.0171 0.9679 -0.2506
vn 0.0177 0.9679 -0.2506
vn 0.0022 0.9692 -0.2464
vn 0.0033 0.9697 -0.2444
vn 0.0104 0.9353 -0.3538
vn 0.0147 0.9718 -0.2354
vn 0.0013 0.9698 -0.2437
vn 0.0005 0.9702 -0.2423
vn 0.0025 0.9710 -0.2390
vn -0.0050 0.9696 -0.2447
vn 0.0267 0.9985 0.0468
vn -0.0160 0.9980 0.0609
# 283 vertex normals

o pista_int
g pista_int
usemtl inner_grass_area
s off
f 1//1 2//2 3//3 
f 2//2 4//4 5//5 
f 5//5 6//6 7//7 
f 8//8 9//9 10//10 
f 9//9 2//2 11//11 
f 11//11 5//5 12//12 
f 13//13 14//14 15//15 
f 14//14 16//16 17//17 
f 18//18 19//19 20//20 
f 19//19 9//9 21//21 
f 21//21 11//11 22//22 
f 23//23 14//14 24//24 
f 25//25 26//26 27//27 
f 26//26 19//19 28//28 
f 28//28 21//21 29//29 
f 30//30 31//31 32//32 
f 31//31 33//33 34//34 
f 34//34 23//23 35//35 
f 35//35 36//36 37//37 
f 38//38 26//26 39//39 
f 39//39 28//28 40//40 
f 41//41 42//42 43//43 
f 44//44 31//31 45//45 
f 45//45 34//34 46//46 
f 46//46 35//35 47//47 
f 48//48 38//38 49//49 
f 49//49 39//39 50//50 
f 51//51 42//42 52//52 
f 52//52 44//44 53//53 
f 53//53 45//45 54//54 
f 54//54 46//46 55//55 
f 48//48 56//56 57//57 
f 58//58 49//49 59//59 
f 59//59 50//50 60//60 
f 61//61 62//62 63//63 
f 63//63 51//51 64//64 
f 64//64 52//52 65//65 
f 65//65 53//53 66//66 
f 66//66 54//54 67//67 
f 68//68 69//69 70//70 
f 69//69 58//58 71//71 
f 71//71 59//59 72//72 
f 73//73 61//61 74//74 
f 74//74 63//63 75//75 
f 75//75 64//64 76//76 
f 76//76 65//65 77//77 
f 77//77 66//66 78//78 
f 79//79 80//80 81//81 
f 80//80 69//69 82//82 
f 82//82 71//71 83//83 
f 83//83 72//72 84//84 
f 84//84 85//85 86//86 
f 86//86 87//87 88//88 
f 88//88 73//73 89//89 
f 89//89 74//74 90//90 
f 90//90 75//75 91//91 
f 91//91 76//76 92//92 
f 92//92 77//77 93//93 
f 94//94 95//95 96//96 
f 95//95 80//80 97//97 
f 97//97 82//82 98//98 
f 98//98 83//83 99//99 
f 99//99 84//84 100//100 
f 100//100 86//86 101//101 
f 101//101 88//88 102//102 
f 102//102 89//89 103//103 
f 103//103 90//90 104//104 
f 104//104 91//91 105//105 
f 93//93 106//106 92//92 
f 95//95 107//107 108//108 
f 109//109 97//97 110//110 
f 110//110 98//98 111//111 
f 111//111 99//99 112//112 
f 100//100 113//113 112//112 
f 101//101 114//114 115//115 
f 102//102 116//116 117//117 
f 103//103 118//118 119//119 
f 104//104 120//120 121//121 
f 110//110 122//122 123//123 
f 111//111 124//124 125//125 
f 50//50 126//126 127//127 
f 128//128 109//109 129//129 
f 22//22 130//130 131//131 
f 132//132 105//105 133//133 
f 55//55 134//134 135//135 
f 67//67 136//136 137//137 
f 29//29 138//138 139//139 
f 72//72 140//140 141//141 
f 78//78 142//142 143//143 
f 144//144 145//145 146//146 
f 17//17 147//147 148//148 
f 40//40 149//149 150//150 
f 93//93 151//151 152//152 
f 24//24 153//153 154//154 
f 155//152 93//93 156//152 
f 157//155 158//156 159//157 
f 160//158 161//159 48//48 
f 162//160 163//161 38//38 
f 164//162 165//163 166//164 
f 167//165 60//60 168//166 
f 169//167 170//168 73//73 
f 171//169 172//170 61//61 
f 173//171 174//172 51//51 
f 44//44 175//173 31//31 
f 176//174 177//175 33//33 
f 23//23 178//176 14//14 
f 179//177 180//178 2//2 
f 181//179 179//177 2//2 
f 1//1 181//179 2//2 
f 2//2 180//178 4//4 
f 182//180 183//181 5//5 
f 184//182 182//180 5//5 
f 4//4 184//182 5//5 
f 5//5 183//181 6//6 
f 185//183 186//184 7//7 
f 187//185 185//183 7//7 
f 6//6 187//185 7//7 
f 188//186 3//3 2//2 
f 189//187 188//186 2//2 
f 189//187 2//2 9//9 
f 190//188 189//187 9//9 
f 191//189 190//188 9//9 
f 8//8 191//189 9//9 
f 2//2 5//5 11//11 
f 5//5 7//7 12//12 
f 192//190 193//191 16//16 
f 192//190 16//16 14//14 
f 13//13 192//190 14//14 
f 16//16 194//192 195//193 
f 196//194 197//195 17//17 
f 198//196 196//194 17//17 
f 195//193 198//196 17//17 
f 16//16 195//193 17//17 
f 199//197 10//10 9//9 
f 199//197 9//9 19//19 
f 200//198 199//197 19//19 
f 18//18 200//198 19//19 
f 9//9 11//11 21//21 
f 11//11 12//12 22//22 
f 14//14 17//17 24//24 
f 201//199 20//20 19//19 
f 201//199 19//19 26//26 
f 25//25 201//199 26//26 
f 19//19 21//21 28//28 
f 21//21 22//22 29//29 
f 202//200 176//174 33//33 
f 202//200 33//33 31//31 
f 30//30 202//200 31//31 
f 33//33 23//23 34//34 
f 23//23 24//24 35//35 
f 24//24 154//154 203//201 
f 24//24 203//201 36//36 
f 35//35 24//24 36//36 
f 26//26 28//28 39//39 
f 28//28 29//29 40//40 
f 204//202 205//203 42//42 
f 41//41 204//202 42//42 
f 31//31 34//34 45//45 
f 34//34 35//35 46//46 
f 35//35 37//37 206//204 
f 206//204 207//205 47//47 
f 35//35 206//204 47//47 
f 38//38 39//39 49//49 
f 39//39 40//40 50//50 
f 42//42 44//44 52//52 
f 44//44 45//45 53//53 
f 45//45 46//46 54//54 
f 46//46 47//47 55//55 
f 48//48 49//49 58//58 
f 48//48 58//58 56//56 
f 49//49 50//50 59//59 
f 50//50 127//127 208//206 
f 208//206 168//166 60//60 
f 50//50 208//206 60//60 
f 61//61 209//207 62//62 
f 210//208 173//171 51//51 
f 210//208 51//51 63//63 
f 62//62 210//208 63//63 
f 51//51 52//52 64//64 
f 52//52 53//53 65//65 
f 53//53 54//54 66//66 
f 54//54 55//55 67//67 
f 211//209 56//56 58//58 
f 211//209 58//58 69//69 
f 68//68 211//209 69//69 
f 58//58 59//59 71//71 
f 59//59 60//60 72//72 
f 61//61 63//63 74//74 
f 63//63 64//64 75//75 
f 64//64 65//65 76//76 
f 65//65 66//66 77//77 
f 66//66 67//67 78//78 
f 212//210 70//70 69//69 
f 212//210 69//69 80//80 
f 79//79 212//210 80//80 
f 69//69 71//71 82//82 
f 71//71 72//72 83//83 
f 141//141 213//211 84//84 
f 72//72 141//141 84//84 
f 84//84 213//211 85//85 
f 214//212 215//213 86//86 
f 216//214 214//212 86//86 
f 217//215 216//214 86//86 
f 218//216 217//215 86//86 
f 219//217 218//216 86//86 
f 85//85 219//217 86//86 
f 86//86 215//213 87//87 
f 220//218 169//167 73//73 
f 220//218 73//73 88//88 
f 221//219 220//218 88//88 
f 222//220 221//219 88//88 
f 87//87 222//220 88//88 
f 73//73 74//74 89//89 
f 74//74 75//75 90//90 
f 75//75 76//76 91//91 
f 76//76 77//77 92//92 
f 77//77 78//78 93//93 
f 223//221 81//81 80//80 
f 223//221 80//80 95//95 
f 224//222 223//221 95//95 
f 94//94 224//222 95//95 
f 80//80 82//82 97//97 
f 82//82 83//83 98//98 
f 83//83 84//84 99//99 
f 84//84 86//86 100//100 
f 86//86 88//88 101//101 
f 88//88 89//89 102//102 
f 89//89 90//90 103//103 
f 90//90 91//91 104//104 
f 91//91 92//92 105//105 
f 93//93 225//152 106//106 
f 226//223 227//224 105//105 
f 226//223 105//105 92//92 
f 106//106 226//223 92//92 
f 95//95 97//97 109//109 
f 95//95 109//109 107//107 
f 97//97 98//98 110//110 
f 98//98 99//99 111//111 
f 99//99 100//100 112//112 
f 100//100 101//101 115//115 
f 100//100 115//115 113//113 
f 113//113 228//225 112//112 
f 101//101 102//102 117//117 
f 101//101 117//117 114//114 
f 102//102 103//103 119//119 
f 102//102 119//119 116//116 
f 103//103 104//104 121//121 
f 103//103 121//121 118//118 
f 104//104 105//105 229//226 
f 104//104 229//226 120//120 
f 110//110 111//111 125//125 
f 110//110 125//125 122//122 
f 111//111 112//112 230//227 
f 111//111 230//227 124//124 
f 40//40 150//150 231//228 
f 40//40 231//228 126//126 
f 50//50 40//40 126//126 
f 128//128 232//229 109//109 
f 109//109 110//110 123//123 
f 109//109 123//123 233//230 
f 109//109 233//230 234//231 
f 109//109 234//231 129//129 
f 12//12 235//232 236//233 
f 12//12 236//233 237//234 
f 12//12 237//234 238//235 
f 12//12 238//235 239//236 
f 22//22 12//12 239//236 
f 22//22 239//236 240//237 
f 22//22 240//237 130//130 
f 132//132 229//226 105//105 
f 105//105 227//224 241//238 
f 105//105 241//238 133//133 
f 47//47 242//239 243//240 
f 47//47 243//240 134//134 
f 55//55 47//47 134//134 
f 55//55 135//135 244//241 
f 55//55 244//241 136//136 
f 67//67 55//55 136//136 
f 22//22 131//131 245//242 
f 22//22 245//242 246//243 
f 22//22 246//243 247//244 
f 29//29 22//22 247//244 
f 29//29 247//244 248//245 
f 29//29 248//245 138//138 
f 60//60 249//246 250//247 
f 60//60 250//247 251//248 
f 60//60 251//248 252//249 
f 60//60 252//249 140//140 
f 72//72 60//60 140//140 
f 67//67 137//137 253//250 
f 67//67 253//250 254//251 
f 67//67 254//251 142//142 
f 78//78 67//67 142//142 
f 144//144 255//144 256//252 
f 144//144 256//252 145//145 
f 257//253 107//107 109//109 
f 109//109 232//229 258//254 
f 257//253 109//109 258//254 
f 259//255 257//253 258//254 
f 259//255 258//254 146//146 
f 145//145 259//255 146//146 
f 17//17 197//195 260//256 
f 17//17 260//256 261//257 
f 17//17 261//257 147//147 
f 29//29 139//139 262//258 
f 29//29 262//258 263//259 
f 40//40 29//29 263//259 
f 40//40 263//259 264//260 
f 40//40 264//260 149//149 
f 78//78 143//143 265//261 
f 78//78 265//261 266//262 
f 78//78 266//262 151//151 
f 93//93 78//78 151//151 
f 17//17 148//148 267//263 
f 17//17 267//263 153//153 
f 24//24 17//17 153//153 
f 155//152 225//152 93//93 
f 93//93 152//152 156//152 
f 268//264 96//96 95//95 
f 269//265 268//264 95//95 
f 270//266 269//265 95//95 
f 270//266 95//95 108//108 
f 270//266 108//108 271//267 
f 270//266 271//267 159//157 
f 272//268 270//266 159//157 
f 158//156 272//268 159//157 
f 273//269 162//160 38//38 
f 273//269 38//38 48//48 
f 161//159 273//269 48//48 
f 274//270 27//27 26//26 
f 274//270 26//26 38//38 
f 163//161 274//270 38//38 
f 164//162 275//271 276//272 
f 164//162 276//272 277//273 
f 164//162 277//273 165//163 
f 278//274 235//232 12//12 
f 278//274 12//12 7//7 
f 279//275 278//274 7//7 
f 7//7 280//276 281//277 
f 279//275 7//7 281//277 
f 282//278 279//275 281//277 
f 283//279 282//278 281//277 
f 283//279 281//277 284//280 
f 285//281 283//279 284//280 
f 285//281 284//280 166//164 
f 165//163 285//281 166//164 
f 167//165 249//246 60//60 
f 170//168 171//169 61//61 
f 170//168 61//61 73//73 
f 172//170 209//207 61//61 
f 174//172 43//43 42//42 
f 174//172 42//42 51//51 
f 44//44 42//42 205//203 
f 44//44 205//203 175//173 
f 175//173 32//32 31//31 
f 286//282 287//283 33//33 
f 177//175 286//282 33//33 
f 23//23 33//33 287//283 
f 23//23 287//283 178//176 
f 178//176 15//15 14//14 
# 0 polygons - 360 triangles

